<?xml version="1.0" encoding="utf-8"?>
<!-- Generator: Adobe Illustrator 22.1.0, SVG Export Plug-In . SVG Version: 6.00 Build 0)  -->
<svg version="1.1" id="Capa_1" xmlns="http://www.w3.org/2000/svg" xmlns:xlink="http://www.w3.org/1999/xlink" x="0px" y="0px"
	 viewBox="0 0 512 512" style="enable-background:new 0 0 512 512;" xml:space="preserve">
<style type="text/css">
	.st0{opacity:0.47;}
	.st1{opacity:0.28;}
	.st2{fill:none;}
	.st3{fill:#FFFFFF;}
</style>
<g>
	<g>
	</g>
	<g>
	</g>
	<g>
	</g>
	<g>
	</g>
	<g>
	</g>
	<g>
	</g>
	<g>
	</g>
	<g>
	</g>
	<g>
	</g>
	<g>
	</g>
	<g>
	</g>
	<g>
	</g>
	<g>
	</g>
	<g>
	</g>
	<g>
	</g>
</g>
<g>
	<g>
	</g>
	<g>
	</g>
	<g>
	</g>
	<g>
	</g>
	<g>
	</g>
	<g>
	</g>
	<g>
	</g>
	<g>
	</g>
	<g>
	</g>
	<g>
	</g>
	<g>
	</g>
	<g>
	</g>
	<g>
	</g>
	<g>
	</g>
	<g>
	</g>
</g>
<g class="st0">
	<g>
	</g>
	<g>
	</g>
	<g>
	</g>
	<g>
	</g>
	<g>
	</g>
	<g>
	</g>
	<g>
	</g>
	<g>
	</g>
	<g>
	</g>
	<g>
	</g>
	<g>
	</g>
	<g>
	</g>
	<g>
	</g>
	<g>
	</g>
	<g>
	</g>
</g>
<g class="st1">
	<g>
	</g>
	<g>
	</g>
	<g>
	</g>
	<g>
	</g>
	<g>
	</g>
	<g>
	</g>
	<g>
	</g>
	<g>
	</g>
	<g>
	</g>
	<g>
	</g>
	<g>
	</g>
	<g>
	</g>
	<g>
	</g>
	<g>
	</g>
	<g>
	</g>
</g>
<g>
	<g>
	</g>
	<g>
	</g>
	<g>
	</g>
	<g>
	</g>
	<g>
	</g>
	<g>
	</g>
	<g>
	</g>
	<g>
	</g>
	<g>
	</g>
	<g>
	</g>
	<g>
	</g>
	<g>
	</g>
	<g>
	</g>
	<g>
	</g>
	<g>
	</g>
</g>
<g>
	<path class="st2" d="M-3433.7,405.3c-2.4-1.7-5.2-2.5-8.4-2.5c-3.2,0-6,0.8-8.4,2.5c-2.4,1.7-3.5,3.7-3.5,6v34h-41.8
		c-12.2,0-23.1-0.3-32.8-0.8c-9.6-0.5-19.2-1.5-28.8-2.9c-9.5-1.4-17.8-3.2-24.8-5.6c-7-2.4-13.6-5.5-19.7-9.2
		c-6.1-3.8-11.1-8.2-14.9-13.4c-3.9-5.2-6.9-11.3-9.1-18.4c-2.2-7.1-3.3-15.1-3.3-24c0-4.9,0.3-10.3,0.9-16.3c0-0.5,0.2-1.6,0.5-3.1
		c0.3-1.5,0.5-2.7,0.5-3.5c0-1.3-0.5-2.4-1.6-3.3c-1.1-0.9-2.5-1.3-4.4-1.3c-2,0-3.7,0.8-5.2,2.3c-0.9,0.8-1.7,1.8-2.4,2.9
		c-0.7,1.1-1.6,2.5-2.5,4c-0.9,1.5-1.6,2.6-2,3.2c-15.8,25.2-23.7,45.2-23.7,59.8c0,17.6,3.3,32.3,9.9,44.2
		c20.2,35.6,74.6,53.5,163.4,53.5h41.8v34c0,2.3,1.2,4.3,3.5,6c2.4,1.7,5.2,2.5,8.4,2.5c3.2,0,6-0.8,8.4-2.5l36.9-26.2v2.5
		l59.6-42.4c3.2-2.3,4.9-5,4.9-8.2c0-3.1-1.6-5.9-4.9-8.2l-59.6-42.4v3.2L-3433.7,405.3z"/>
	<path class="st2" d="M-3553.3,223.6h125.6L-3576,105.5v94C-3576,205.1-3574.4,223.6-3553.3,223.6z"/>
	<path class="st3" d="M-3306.4,470.9l-94.5-67.1v24.5l59.6,42.4c3.2,2.3,4.9,5,4.9,8.2c0,3.1-1.6,5.9-4.9,8.2l-59.6,42.4v9.9
		c0,5.9-1.5,11.5-4,16.4l98.5-70c2.9-2.1,4.4-4.5,4.4-7.4C-3302,475.5-3303.4,473-3306.4,470.9z"/>
	<path class="st3" d="M-3396.8,529.4v-2.5l-36.9,26.2c-2.4,1.7-5.2,2.5-8.4,2.5c-3.2,0-6-0.8-8.4-2.5c-2.4-1.7-3.5-3.7-3.5-6v-34
		h-41.8c-88.7,0-143.2-17.8-163.4-53.5c-6.6-11.9-9.9-26.6-9.9-44.2c0-14.7,7.9-34.6,23.7-59.8c0.4-0.6,1-1.7,2-3.2
		c0.9-1.5,1.8-2.8,2.5-4c0.8-1.2,1.6-2.1,2.4-2.9c1.5-1.5,3.2-2.3,5.2-2.3c1.9,0,3.3,0.4,4.4,1.3c1.1,0.9,1.6,2,1.6,3.3
		c0,0.8-0.2,2-0.5,3.5c-0.3,1.5-0.5,2.6-0.5,3.1c-0.6,6-0.9,11.5-0.9,16.3c0,8.9,1.1,16.9,3.3,24c2.2,7.1,5.2,13.2,9.1,18.4
		c3.9,5.2,8.8,9.6,14.9,13.4c6.1,3.8,12.7,6.8,19.7,9.2c7,2.4,15.3,4.3,24.8,5.6c9.5,1.4,19.1,2.3,28.8,2.9
		c9.6,0.5,20.6,0.8,32.8,0.8h41.8v-34c0-2.3,1.2-4.3,3.5-6c2.4-1.7,5.2-2.5,8.4-2.5c3.2,0,6,0.8,8.4,2.5l36.9,26.2v-3.2v-24.5v-113
		v-58.2c0-15.7-8.8-34.8-20.6-44.5l-135.1-110.7c-11.1-9.1-30.2-15.8-45.3-15.8h-155.5c-19,0-34.4,15.1-34.4,33.6
		c0,4.5,0.2,447.3,0.2,449.6c0,16.9,11.8,28.7,28.8,28.7c10.8,0,328.5,0.1,328.5,0.1c12.7,0,23.7-7.3,29.4-18c2.6-4.9,4-10.4,4-16.4
		V529.4z M-3576,105.5l148.2,118.2h-125.6c-21,0-22.7-18.5-22.7-24.1V105.5z"/>
</g>
</svg>
