<?xml version="1.0" encoding="UTF-8" standalone="no"?>
<!-- Created with Inkscape (http://www.inkscape.org/) -->
<svg xmlns:dc="http://purl.org/dc/elements/1.1/" xmlns:cc="http://creativecommons.org/ns#" xmlns:rdf="http://www.w3.org/1999/02/22-rdf-syntax-ns#" xmlns:svg="http://www.w3.org/2000/svg" xmlns="http://www.w3.org/2000/svg" xmlns:xlink="http://www.w3.org/1999/xlink" version="1.1" width="2512" height="1396" id="svg2996">
  <metadata id="metadata3002">
    <rdf:RDF>
      <cc:Work rdf:about="">
        <dc:format>image/svg+xml</dc:format>
        <dc:type rdf:resource="http://purl.org/dc/dcmitype/StillImage"/>
        <dc:title/>
      </cc:Work>
    </rdf:RDF>
  </metadata>
  <defs id="defs3000"/>
  <image xlink:href="file:///D:/Pictures/logo%20elipse/Sans%20titre-1_fondblanc.png" x="0" y="0" width="2512" height="1396" id="image3004"/>
  <g id="g3006">
    <path d="M 875,874.9919 875,435 l 58.98123,0 58.98122,0 0.26878,22.45404 0.26877,22.45404 10,-6.03976 c 32.5273,-19.64575 66.3031,-31.56921 103,-36.36088 14.0792,-1.83838 48.0055,-2.10834 63,-0.5013 47.0993,5.04788 89.507,21.1164 126,47.74214 34.1585,24.9225 63.6162,58.28117 83.2297,94.25172 12.6508,23.20108 24.3788,60.41074 26.8696,85.25 0.3723,3.7125 0.9828,6.75 1.3568,6.75 0.3739,0 1.1812,-3.74707 1.794,-8.32682 5.7565,-43.02374 26.4136,-90.46343 54.7249,-125.67763 30.7798,-38.28467 66.5311,-65.75177 107.3273,-82.45788 31.5431,-12.91691 61.9983,-18.56232 100.1977,-18.57343 28.3963,-0.008 48.0015,2.61376 72.5,9.69622 41.6612,12.04415 86.5211,39.02182 121.68,73.17554 l 10.9778,10.664 -7.738,10.5 c -13.9998,18.99688 -28.8719,36.00331 -58.1386,66.48235 l -15.3466,15.98235 -4.1805,-4.98235 c -28.6947,-34.19911 -61.9159,-55.03506 -97.3897,-61.08179 -13.3734,-2.27959 -42.8521,-1.46987 -55.8644,1.53448 -36.4603,8.41816 -62.8496,26.55931 -83.6602,57.51167 -5.1375,7.64113 -13.8398,23.38042 -13.8398,25.03109 0,0.28721 85.3875,0.54123 189.75,0.5645 l 189.75,0.0423 9.3397,12.07571 9.3396,12.07571 0.6431,17.63199 0.643,17.63199 0.6766,-15 c 2.9089,-64.49266 29.5623,-123.20132 77.8595,-171.49851 48.5559,-48.55591 107.3229,-75.11204 172.2539,-77.83964 31.5116,-1.32373 60.9144,1.21079 86.7836,7.4807 l 11.1707,2.70746 -0.6068,14.57499 c -0.3338,8.01625 -0.8459,16.6 -1.1381,19.075 -0.2922,2.475 -0.7036,6.075 -0.9142,8 -0.2106,1.925 -0.6342,4.625 -0.9413,6 -0.3071,1.375 -0.8222,4.75 -1.1446,7.5 -0.737,6.28502 -1.1032,8.21276 -2.3127,12.17473 -0.5331,1.7461 -0.7727,3.37119 -0.5326,3.61131 0.2401,0.24012 0.014,1.54889 -0.5032,2.90837 -0.5169,1.35948 -1.207,4.23439 -1.5337,6.38868 -0.7116,4.69335 -10.3871,39.48266 -11.4665,41.22915 -0.5653,0.91474 -2.3858,0.48911 -7.1865,-1.68021 -18.7033,-8.45144 -35.7009,-11.58715 -58.8325,-10.85341 -23.6607,0.75052 -36.5709,4.16469 -58.2564,15.4062 -19.5979,10.15936 -41.1258,28.59939 -53.2302,45.59518 -5.1798,7.2729 -14.6085,22.73868 -14.6097,23.96409 -4e-4,0.40924 36.2262,0.85924 80.5036,1 l 80.5043,0.25591 -2.6782,5 c -9.7372,18.17832 -23.848,41.75209 -34.0329,56.85595 -2.9136,4.32077 -5.2975,8.05226 -5.2975,8.29221 0,0.23994 -0.4647,0.97976 -1.0326,1.64405 -0.568,0.66428 -7.6373,10.20779 -15.7097,21.20779 -8.0723,11 -15.2576,20.35986 -15.9673,20.79969 -0.7097,0.43983 -1.2904,1.40418 -1.2904,2.14301 0,0.73883 -0.7118,1.61647 -1.5818,1.95031 -0.87,0.33385 -19.995,0.60699 -42.5,0.60699 -22.505,0 -40.9182,0.25908 -40.9182,0.57574 0,1.21817 15.2822,20.40525 24.1761,30.35352 16.9812,18.99438 16.1869,17.92248 14.6744,19.80095 -5.2026,6.46179 -32.8234,34.34771 -48.9526,49.42252 -18.5077,17.2977 -20.1677,18.81996 -25.2796,23.18183 -2.685,2.29099 -6.959,6.07794 -9.4979,8.41544 -2.5389,2.3375 -5.1068,4.25 -5.7066,4.25 -1.7878,0 -22.4489,-21.76924 -30.371,-32 -33.756,-43.59303 -51.3366,-91.31702 -53.9679,-146.5 -0.4196,-8.8 -0.8335,-13.525 -0.9198,-10.5 -1.42,49.80277 -16.4085,98.79393 -42.4233,138.66347 -14.0857,21.58746 -36.2175,46.37289 -56.7318,63.53413 -36.6648,30.67198 -79.0316,49.1375 -129.5,56.44248 -15.2386,2.20569 -56.3763,2.51072 -70.5,0.52276 -60.0853,-8.45725 -110.9026,-34.58753 -160.8547,-82.71163 -11.3627,-10.94684 -12.9796,-12.8923 -12.0927,-14.54952 1.6294,-3.04455 19.7689,-25.42228 29.9128,-36.90169 9.8507,-11.14769 48.0683,-52 48.6463,-52 0.1883,0 5.8541,5.66379 12.5906,12.5862 29.5492,30.3647 57.4327,47.16146 89.7977,54.09329 11.2632,2.41232 39.4252,2.43849 52.5,0.0488 20.7193,-3.78691 39.8793,-11.38721 55.2428,-21.91342 11.5278,-7.89829 26.5571,-23.39874 35.1047,-36.20525 C 1797.0694,779.28766 1805,765.23102 1805,763.52496 1805,763.23623 1719.4973,763 1614.994,763 l -190.006,0 -8.6208,-11.65079 c -4.7414,-6.40794 -8.9216,-12.77526 -9.2891,-14.14962 -0.4659,-1.7422 -1.3411,1.60142 -2.8903,11.0428 -8.7675,53.43137 -32.9613,99.50409 -73.6736,140.29789 -43.6997,43.78724 -92.2445,68.25173 -153.0142,77.11261 -17.3451,2.52909 -58.4305,2.50431 -75,-0.0452 -34.9473,-5.37736 -69.7089,-17.77082 -99.25,-35.38538 l -10.25,-6.11179 0,191.87738 c 0,181.8667 -0.0913,191.9057 -1.75,192.4205 -0.9625,0.2987 -4.9,0.7852 -8.75,1.081 -3.85,0.2958 -9.27181,0.7533 -12.04846,1.0167 -5.00056,0.4743 -15.50024,1.17 -30.95154,2.0506 -9.82155,0.5598 -25.68412,1.1886 -47.75,1.8926 l -16.75,0.5345 0,-439.99186 z m 295.0355,-28.86633 c 28.4346,-5.76145 52.8173,-19.09293 74.4072,-40.68287 22.17,-22.17003 35.6278,-47.31361 41.1825,-76.9427 2.7561,-14.70098 2.5331,-42.24347 -0.4549,-56.18841 -5.9425,-27.73362 -18.0116,-50.43117 -37.9864,-71.43888 -21.386,-22.49182 -47.0549,-37.11831 -76.4157,-43.54277 -11.8825,-2.6 -46.6467,-2.60558 -58.7682,-0.009 -29.0229,6.21604 -51.0203,18.57733 -74.0612,41.61828 -23.041,23.04094 -35.4023,45.0383 -41.61829,74.06121 -2.59615,12.12149 -2.59057,46.88575 0.009,58.76818 6.42449,29.36084 21.05099,55.02971 43.54279,76.41571 23.6707,22.50693 50.1795,35.3529 82.1273,39.79835 10.1485,1.41214 37.031,0.37308 48.0355,-1.85667 z M 273.5,967.36782 c -21.60724,-1.78231 -44.59688,-6.42245 -64.5,-13.01842 -13.0345,-4.31969 -43.93712,-18.37201 -44.06025,-20.03547 -0.0331,-0.44766 -0.3376,-3.06393 -0.67658,-5.81393 -1.4788,-11.99653 -0.75944,-53.11385 1.20717,-69 0.27234,-2.2 0.67725,-5.575 0.8998,-7.5 0.37118,-3.21069 1.8231,-12.1105 3.18123,-19.5 0.30325,-1.65 1.18164,-5.475 1.95197,-8.5 0.77032,-3.025 1.66882,-7.075 1.99666,-9 0.32784,-1.925 1.29852,-6.2 2.15706,-9.5 0.85855,-3.3 1.65855,-6.45 1.77777,-7 0.11923,-0.55 1.20861,-4.24367 2.42086,-8.20815 l 2.20407,-7.20815 8.18314,9.20815 c 4.50072,5.06448 14.72477,15.90113 22.72012,24.08144 15.94053,16.30932 17.34632,17.22142 37.19326,24.13189 17.68874,6.15901 28.36856,7.99485 46.34372,7.96639 23.37059,-0.037 39.41731,-3.8868 60.5,-14.51465 20.83672,-10.50385 43.12252,-29.27143 59.01615,-49.69936 l 2.51615,-3.23398 42.82151,42.8302 42.82152,42.83021 -13.33767,12.57215 C 438.26825,928.80835 388.83658,955.60818 332.5,965.10036 c -11.75732,1.981 -46.3539,3.3106 -59,2.26746 z M 564.02367,656.25 l 0.0237,-311.75 9.46912,-6.25 c 5.20802,-3.4375 9.92237,-6.25 10.47634,-6.25 0.55396,0 1.0072,-0.45 1.0072,-1 0,-0.55 0.47032,-1 1.04516,-1 0.57484,0 4.37952,-2.25 8.45484,-5 4.07532,-2.75 7.88,-5 8.45484,-5 0.57484,0 1.04516,-0.45 1.04516,-1 0,-0.55 0.675,-1 1.5,-1 0.825,0 1.5,-0.45 1.5,-1 0,-0.55 0.675,-1 1.5,-1 0.825,0 1.5,-0.36601 1.5,-0.81335 0,-0.44735 1.575,-1.43134 3.5,-2.18665 1.925,-0.75531 3.5,-1.7393 3.5,-2.18665 0,-0.44734 0.4454,-0.81335 0.98977,-0.81335 0.54438,0 4.14898,-2.025 8.01023,-4.5 3.86125,-2.475 7.46585,-4.5 8.01023,-4.5 0.54437,0 0.98977,-0.34015 0.98977,-0.75589 0,-0.41574 1.4625,-1.39219 3.25,-2.16989 1.7875,-0.77769 3.475,-1.67505 3.75,-1.99411 0.79373,-0.92091 8.32297,-5.15269 10.25,-5.76097 0.9625,-0.30382 1.75,-0.94992 1.75,-1.43577 0,-0.48585 0.675,-0.88337 1.5,-0.88337 0.825,0 1.5,-0.45 1.5,-1 0,-0.55 0.69662,-1 1.54804,-1 0.85142,0 4.01015,-1.575 7.01941,-3.5 3.00926,-1.925 5.69659,-3.5 5.97184,-3.5 0.27525,0 2.28257,-1.125 4.46071,-2.5 2.17814,-1.375 4.4192,-2.5 4.98013,-2.5 C 681.67133,274 682,385.82587 682,621 l 0,347 -59,0 -59,0 0.0237,-311.75 z M 744,763 l 0,-205 -27,0 -27,0 0,-61.5 0,-61.5 86.5,0 86.5,0 0,266.5 0,266.5 -59.5,0 -59.5,0 0,-205 z m -552.10716,-7.25 c 1.00197,-2.3375 1.81624,-4.475 1.8095,-4.75 -0.007,-0.275 0.68585,-1.85 1.5391,-3.5 0.85325,-1.65 1.48548,-3.26018 1.40496,-3.57818 -0.0805,-0.318 0.59372,-2.118 1.49832,-4 0.9046,-1.882 2.11417,-4.54682 2.68795,-5.92182 7.07927,-16.96479 26.0907,-52.70401 39.2486,-73.78266 3.5303,-5.65546 7.57336,-12.18046 8.98458,-14.5 l 2.56584,-4.21734 88.19825,-0.25544 88.19824,-0.25543 -2.41245,-4.74457 C 414.92932,615.22764 395.98706,594.31118 374.5472,579.85355 358.65903,569.13961 335.55885,559.13486 322.6121,557.36031 320.07544,557.01262 318,556.40503 318,556.0101 c 0,-0.39493 1.0125,-1.82734 2.25,-3.18314 1.2375,-1.35579 6.50216,-7.159 11.69923,-12.89602 11.8042,-13.03056 53.55055,-54.78524 65.44103,-65.45408 4.88965,-4.38727 10.4651,-9.43936 12.38988,-11.22686 1.92479,-1.7875 3.71848,-3.25 3.98597,-3.25 1.44226,0 21.10341,11.32724 29.73389,17.13038 35.92304,24.15467 63.98885,56.00569 89.02582,101.03265 13.27899,23.88119 21.88211,45.4881 27.20941,68.33697 2.53989,10.89364 2.56878,11.49555 2.98694,62.25 l 0.42224,51.25 -186.53667,0 -186.53667,0 1.82177,-4.25 z" id="path3010" style="fill:#fefefe"/>
    <path d="m 875,1348.581 0,-33.4189 -27.25,-0.1387 c -46.8628,-0.2385 -81.55625,-1.6286 -114.25,-4.5779 -3.3,-0.2977 -8.475,-0.7108 -11.5,-0.918 -5.17966,-0.3547 -11.27485,-0.9816 -20.5,-2.1084 -2.2,-0.2687 -6.475,-0.7277 -9.5,-1.02 -3.025,-0.2923 -7.3,-0.7481 -9.5,-1.0129 -2.2,-0.2648 -5.35,-0.6337 -7,-0.8197 -4.90134,-0.5526 -13.68444,-1.7173 -15.40182,-2.0423 -0.879,-0.1663 -3.84818,-0.598 -6.59818,-0.9593 -2.75,-0.3613 -6.35,-0.8921 -8,-1.1797 -5.71713,-0.9963 -9.01427,-1.517 -12,-1.8951 -3.43087,-0.4345 -8.30038,-1.3647 -10.5,-2.0058 -0.825,-0.2405 -3.3,-0.7015 -5.5,-1.0245 -4.1027,-0.6023 -5.78427,-0.9072 -11,-1.9945 -1.65,-0.344 -4.125,-0.7834 -5.5,-0.9764 -1.375,-0.1931 -2.5,-0.4131 -2.5,-0.4889 0,-0.076 -1.125,-0.2958 -2.5,-0.4889 -2.33527,-0.3279 -3.53376,-0.5608 -10,-1.943 -1.375,-0.2939 -3.625,-0.7745 -5,-1.0681 -5.98614,-1.278 -7.12216,-1.5299 -9.25,-2.0513 -1.2375,-0.3032 -3.375,-0.7779 -4.75,-1.055 -1.375,-0.2771 -4.75,-1.1387 -7.5,-1.9147 -2.75,-0.776 -6.35,-1.6716 -8,-1.9903 -6.52294,-1.2598 -7.87824,-1.6208 -9.6547,-2.5715 -1.01492,-0.5432 -1.8453,-0.7579 -1.8453,-0.4771 0,0.2807 -1.2375,0.03 -2.75,-0.5568 -1.5125,-0.587 -3.875,-1.2749 -5.25,-1.5287 -1.375,-0.2538 -7,-1.8046 -12.5,-3.4462 -5.5,-1.6416 -11.08212,-3.2139 -12.4047,-3.4942 -1.32259,-0.2802 -3.12259,-0.8936 -4,-1.3632 -0.87742,-0.4696 -2.0453,-0.9554 -2.5953,-1.0797 -1.15154,-0.2602 -1.18724,-0.2706 -8.5,-2.4713 -3.025,-0.9104 -6.175,-1.9189 -7,-2.2412 -0.825,-0.3224 -1.725,-0.6638 -2,-0.7588 -0.275,-0.095 -1.175,-0.4195 -2,-0.7212 -0.825,-0.3016 -7.575,-2.6806 -15,-5.2866 -7.425,-2.606 -14.625,-5.2077 -16,-5.7814 -1.375,-0.5738 -2.725,-1.1198 -3,-1.2134 -1.29117,-0.4394 -4.96056,-1.9939 -9.77964,-4.1429 -2.90379,-1.295 -5.51598,-2.3545 -5.80486,-2.3545 -0.28888,0 -2.41304,-0.8337 -4.72036,-1.8526 -5.35524,-2.365 -8.1567,-3.3599 -8.34015,-2.9619 -0.0798,0.173 -1.09226,-0.5427 -2.25,-1.5905 -1.15775,-1.0477 -2.10499,-1.5551 -2.10499,-1.1275 0,0.4275 -0.675,0.2172 -1.5,-0.4675 -0.825,-0.6847 -1.5,-0.9097 -1.5,-0.5 0,0.4097 -0.70826,0.1571 -1.5739,-0.5613 -1.75683,-1.4581 -19.1581,-9.9387 -20.39299,-9.9387 -0.43352,0 -1.34431,-0.67 -2.02397,-1.489 -0.67967,-0.8189 -1.60367,-1.2616 -2.05335,-0.9837 -0.44968,0.2779 -1.08388,0.074 -1.40934,-0.4521 -0.32547,-0.5267 -2.71906,-1.9776 -5.3191,-3.2245 -2.60004,-1.2468 -5.51485,-2.918 -6.47735,-3.7138 -0.9625,-0.7958 -1.75,-1.1195 -1.75,-0.7193 0,0.4002 -1.18569,-0.2051 -2.63486,-1.345 -1.44917,-1.1399 -3.19407,-2.0726 -3.87755,-2.0726 -0.68349,0 -1.79879,-0.67 -2.47845,-1.489 -0.67967,-0.8189 -1.63477,-1.2424 -2.12245,-0.941 -0.48768,0.3014 -0.88954,0.184 -0.89301,-0.261 -0.003,-0.4449 -1.46598,-1.6401 -3.25,-2.656 -1.78403,-1.0158 -3.24368,-1.6946 -3.24368,-1.5083 0,0.1863 -2.1375,-1.1201 -4.75,-2.903 -2.6125,-1.7829 -6.775,-4.6197 -9.25,-6.3038 -2.475,-1.6842 -4.51368,-2.6967 -4.53041,-2.25 -0.0167,0.4466 -0.48908,0.025 -1.04969,-0.9379 -0.5606,-0.9625 -1.44167,-1.75 -1.95792,-1.75 -0.89702,0 -35.92495,-25.5736 -36.96198,-26.9856 -0.275,-0.3745 -3.65,-3.3097 -7.5,-6.5227 -14.42551,-12.0389 -25.45126,-23.0563 -43,-42.9675 -5.17219,-5.8684 -8.10426,-9.4489 -11.89356,-14.5238 -2.25854,-3.0247 -4.89394,-6.3721 -5.85644,-7.4385 -0.9625,-1.0665 -1.75,-2.2342 -1.75,-2.5949 0,-0.3608 -1.12445,-1.9634 -2.49878,-3.5615 -1.37433,-1.598 -2.49933,-3.468 -2.5,-4.1555 -6.7e-4,-0.6875 -0.37518,-1.25 -0.83224,-1.25 -0.45706,0 -1.46884,-1.2375 -2.24841,-2.75 -0.77956,-1.5125 -1.66319,-2.975 -1.96363,-3.25 -0.99125,-0.9073 -8.32582,-13.6687 -11.78233,-20.5 -0.83487,-1.65 -1.80164,-3.225 -2.14838,-3.5 -0.91324,-0.7243 -4.02623,-7.6064 -4.02623,-8.9011 0,-0.6044 -0.45,-1.0989 -1,-1.0989 -0.55,0 -1,-0.4747 -1,-1.0549 0,-1.115 -3.33863,-9.1417 -5.13016,-12.3338 -0.58301,-1.0388 -1.74125,-4.1888 -2.57386,-7 -0.83262,-2.8112 -1.85384,-5.3363 -2.26937,-5.6113 -0.92797,-0.6141 -9.94891,-29.63529 -10.4551,-33.63498 -0.2008,-1.58658 -0.9114,-4.90526 -1.57912,-7.37485 -0.66771,-2.46959 -1.34181,-5.39017 -1.49799,-6.49017 -0.15617,-1.1 -1.02583,-6.275 -1.93256,-11.5 -0.90674,-5.225 -1.85599,-11.38465 -2.10945,-13.68812 l -0.46083,-4.18812 15.25422,7.37584 c 24.13914,11.67195 48.45807,18.95931 77.25422,23.14985 17.17624,2.49956 56.76708,2.50789 72,0.0152 58.43322,-9.5621 107.94285,-36.07823 161.33766,-86.40847 l 13.33767,-12.57215 -42.82152,-42.83021 -42.82151,-42.8302 -2.51615,3.23398 C 400.12252,804.68549 377.83672,823.45307 357,833.95692 c -21.08269,10.62785 -37.12941,14.47764 -60.5,14.51465 -17.97516,0.0285 -28.65498,-1.80738 -46.34372,-7.96639 -19.84694,-6.91047 -21.25273,-7.82257 -37.19326,-24.13189 -7.99535,-8.18031 -18.2194,-19.01696 -22.72012,-24.08144 l -8.18314,-9.20815 -2.20407,7.20815 c -1.21225,3.96448 -2.30163,7.65815 -2.42086,8.20815 -0.11922,0.55 -0.91922,3.7 -1.77777,7 -0.85854,3.3 -1.82922,7.575 -2.15706,9.5 -0.32784,1.925 -1.22634,5.975 -1.99666,9 -0.77033,3.025 -1.64872,6.85 -1.95197,8.5 -1.35813,7.3895 -2.81005,16.28931 -3.18123,19.5 -0.22255,1.925 -0.62746,5.3 -0.8998,7.5 -1.96436,15.86796 -2.68876,56.63364 -1.23056,69.25 0.33374,2.8875 0.20872,5.25 -0.27782,5.25 C 162.10503,934 136.07405,915.83774 127,908.21101 114.29607,897.53337 93.094524,875.71803 84.032906,864 44.040801,812.28422 27.072759,756.1112 30.166477,685.67419 33.00273,621.09906 59.627545,562.37544 108.00149,514.00149 c 48.54199,-48.54199 107.31172,-75.10596 172.21126,-77.83964 38.46667,-1.62029 72.25879,2.29752 102.28725,11.85902 8.67141,2.76111 29.23761,10.61365 30.40366,11.60867 0.44202,0.37718 -2.13306,2.84171 -15.5134,14.84732 -11.89048,10.66884 -53.63683,52.42352 -65.44103,65.45408 -5.19707,5.73702 -10.46173,11.54023 -11.69923,12.89602 -1.2375,1.3558 -2.25,2.78821 -2.25,3.18314 0,0.39493 2.07544,1.00252 4.6121,1.35021 12.94675,1.77455 36.04693,11.7793 51.9351,22.49324 21.44214,14.45916 40.38208,35.37397 51.07128,56.39645 l 2.41521,4.75 -87.51684,0 C 290.97973,641 253,640.61917 253,640.12244 c 0,-0.48265 0.675,-1.43775 1.5,-2.12244 0.825,-0.68469 1.5,-1.66374 1.5,-2.17567 0,-0.51193 2.475,-4.27748 5.5,-8.36789 3.025,-4.09041 5.5,-7.89146 5.5,-8.44677 0,-0.55532 0.41968,-1.00967 0.93261,-1.00967 0.51294,0 1.19226,-0.7875 1.5096,-1.75 0.31735,-0.9625 1.91787,-3.325 3.55671,-5.25 3.89081,-4.57017 3.41324,-3.96084 12.14806,-15.5 4.16333,-5.5 8.72213,-11.35 10.13066,-13 3.26131,-3.82043 9.22832,-10.9725 13.72236,-16.44763 1.925,-2.34524 4.58442,-5.44224 5.90982,-6.8822 l 2.40983,-2.61812 -3.90983,-0.85411 C 311.25942,555.22818 301.625,555.0571 292,555.31777 c -24.5565,0.66505 -37.06754,3.91487 -59.15939,15.36705 -19.59796,10.15936 -41.12583,28.59939 -53.23025,45.59518 -5.19163,7.28955 -14.60844,22.7397 -14.60963,23.97 -4e-4,0.4125 19.56112,0.75 43.47005,0.75 l 43.47079,0 -2.72079,4.46477 c -1.49643,2.45562 -5.60921,9.09312 -9.13951,14.75 -13.16777,21.09974 -32.17167,56.82604 -39.2486,73.78523 -0.57378,1.375 -1.68113,3.85 -2.46079,5.5 -0.77965,1.65 -1.33754,3.225 -1.23976,3.5 0.0978,0.275 -0.65488,2.075 -1.67259,4 -1.01772,1.925 -1.93265,3.95 -2.03318,4.5 -0.10053,0.55 -0.88963,2.6875 -1.75354,4.75 l -1.57076,3.75 -12.63436,0 c -7.18812,0 -12.49067,0.39317 -12.30102,0.9121 C 165.9282,762.99589 181.11343,782 182.01694,782 182.55762,782 183,781.175 183,780.16667 c 0,-1.00834 0.3375,-2.17084 0.75,-2.58334 0.4125,-0.4125 0.76847,-1.05 0.79103,-1.41666 0.0854,-1.38765 3.75778,-11.71033 4.50625,-12.66667 0.43046,-0.55 0.70841,-1.45 0.61768,-2 -0.10936,-0.66293 62.80628,-1.08515 186.65724,-1.25263 l 186.82219,-0.25263 -0.42223,-51.24737 C 562.30401,657.99573 562.27511,657.39359 559.73523,646.5 554.40793,623.65113 545.80481,602.04422 532.52582,578.16303 503.28415,525.57425 468.27893,489.20996 423.69169,465.10341 l -9.80831,-5.30297 4.27502,-3.94668 c 2.35126,-2.17067 5.95577,-5.31663 8.01001,-6.99103 2.05424,-1.67439 4.76922,-3.92408 6.03329,-4.9993 7.19993,-6.12431 12.32062,-10.57086 13.94991,-12.11343 1.01662,-0.9625 2.06997,-1.75 2.34078,-1.75 0.27082,0 1.50832,-0.87273 2.75,-1.9394 5.93706,-5.10023 7.13045,-6.10317 10.97047,-9.21979 2.26394,-1.83745 4.68506,-3.90331 5.38027,-4.59081 0.69521,-0.6875 1.54015,-1.25 1.87765,-1.25 0.56218,0 1.31668,-0.55425 4.81392,-3.53625 0.66842,-0.56993 3.0153,-2.36737 5.2153,-3.99431 2.2,-1.62693 4.225,-3.18818 4.5,-3.46944 0.275,-0.28126 2.3,-1.83503 4.5,-3.45283 2.2,-1.61779 4.225,-3.20508 4.5,-3.5273 0.275,-0.32223 2.975,-2.35617 6,-4.51987 3.025,-2.1637 5.725,-4.1887 6,-4.5 0.275,-0.3113 2.975,-2.34343 6,-4.51585 3.025,-2.17242 5.65,-4.29507 5.83333,-4.717 0.18334,-0.42193 0.79805,-0.76715 1.36603,-0.76715 1.16237,0 11.11787,-7.04506 11.63397,-8.23285 C 530.01667,367.34522 530.76667,367 531.5,367 c 0.73333,0 1.48333,-0.36456 1.66667,-0.81013 C 533.35,365.74429 540.25,360.7721 548.5,355.14056 l 15,-10.23917 0.25158,311.5493 L 564.00317,968 623.00158,968 682,968 682,621 c 0,-235.17413 -0.32867,-347 -1.01987,-347 -0.56093,0 -2.80199,1.125 -4.98013,2.5 -2.17814,1.375 -4.18546,2.5 -4.46071,2.5 -0.27525,0 -2.96258,1.575 -5.97184,3.5 -3.00926,1.925 -6.16799,3.5 -7.01941,3.5 -0.85142,0 -1.54804,0.45 -1.54804,1 0,0.55 -0.675,1 -1.5,1 -0.825,0 -1.5,0.39752 -1.5,0.88337 0,0.48585 -0.7875,1.13195 -1.75,1.43577 -1.92703,0.60828 -9.45627,4.84006 -10.25,5.76097 -0.275,0.31906 -1.9625,1.21642 -3.75,1.99411 -1.7875,0.7777 -3.25,1.75415 -3.25,2.16989 0,0.41574 -0.4454,0.75589 -0.98977,0.75589 -0.54438,0 -4.14898,2.025 -8.01023,4.5 -3.86125,2.475 -7.46585,4.5 -8.01023,4.5 -0.54437,0 -0.98977,0.36601 -0.98977,0.81335 0,0.44735 -1.575,1.43134 -3.5,2.18665 -1.925,0.75531 -3.5,1.7393 -3.5,2.18665 0,0.44734 -0.675,0.81335 -1.5,0.81335 -0.825,0 -1.5,0.45 -1.5,1 0,0.55 -0.675,1 -1.5,1 -0.825,0 -1.5,0.45 -1.5,1 0,0.55 -0.47032,1 -1.04516,1 -0.57484,0 -4.37952,2.25 -8.45484,5 -4.07532,2.75 -7.88,5 -8.45484,5 -0.57484,0 -1.04516,0.45 -1.04516,1 0,0.55 -0.46726,1 -1.03836,1 -0.5711,0 -5.05384,2.7 -9.96164,6 -4.9078,3.3 -9.16554,6 -9.46164,6 C 564.24226,344 564,271.1 564,182 l 0,-162 59,0 59,0 0,126 c 0,140.30771 -0.67794,128.34687 7,123.5 2.17814,-1.375 4.3817,-2.5 4.89679,-2.5 0.5151,0 1.08654,-0.3375 1.26988,-0.75 0.18333,-0.4125 4.38333,-2.775 9.33333,-5.25 4.95,-2.475 9.225,-4.725 9.5,-5 0.275,-0.275 5.9,-3.2 12.5,-6.5 6.6,-3.3 12.15,-6.3375 12.33333,-6.75 0.18334,-0.4125 0.93437,-0.75 1.66896,-0.75 1.42752,0 7.65645,-3.05386 8.50697,-4.17072 0.28093,-0.36889 1.74377,-0.98017 3.25076,-1.3584 C 753.76701,236.09265 755,235.38197 755,234.89159 755,234.40122 755.59089,234 756.31309,234 c 0.7222,0 5.28165,-2.025 10.1321,-4.5 4.85045,-2.475 9.43456,-4.5 10.18691,-4.5 0.75234,0 1.3679,-0.45 1.3679,-1 0,-0.55 0.52141,-1 1.1587,-1 0.63728,0 4.34978,-1.53254 8.25,-3.40564 6.91506,-3.32099 11.68955,-5.54144 28.0913,-13.06427 9.42545,-4.32308 13.90186,-6.33172 18,-8.0769 5.45353,-2.32236 11.93653,-5.17449 16.5,-7.25899 2.475,-1.13053 5.7375,-2.3605 7.25,-2.73327 1.5125,-0.37276 2.75,-1.07896 2.75,-1.56934 0,-0.49037 0.7875,-0.8957 1.75,-0.90073 0.9625,-0.005 4,-1.11596 6.75,-2.46873 2.75,-1.35277 5.68737,-2.47366 6.52749,-2.49086 0.84013,-0.0172 2.4189,-0.65563 3.50839,-1.41874 1.08948,-0.76311 3.88961,-1.95933 6.2225,-2.65829 2.33289,-0.69895 4.24162,-1.59334 4.24162,-1.98753 0,-0.39419 1.35708,-0.98813 3.01573,-1.31986 1.65865,-0.33173 5.41457,-1.73798 8.34649,-3.125 2.93192,-1.38702 5.96234,-2.53592 6.73427,-2.55312 0.77193,-0.0172 3.65351,-1.13809 6.40351,-2.49086 2.75,-1.35277 5.68166,-2.4637 6.51481,-2.46873 0.83314,-0.005 3.10105,-0.85932 5.0398,-1.89842 1.93874,-1.03911 6.31958,-2.67341 9.73519,-3.63178 C 938.20541,156.52057 941,155.40505 941,155 c 0,-0.40505 2.8125,-1.50669 6.25,-2.44811 3.4375,-0.94141 8.05,-2.5427 10.25,-3.55843 2.2,-1.01573 8.05,-3.08213 13,-4.59202 4.95,-1.50988 9.9,-3.29967 11,-3.97732 1.1,-0.67765 8.3,-3.11749 16,-5.42188 7.7,-2.30438 15.125,-4.81469 16.5,-5.57846 3.0739,-1.70747 77.2668,-24.42143 81.5696,-24.97233 1.7038,-0.21813 9.6597,-2.43395 17.6797,-4.92403 C 1121.2694,97.037339 1128.679,95 1129.715,95 c 1.0361,0 6.1365,-1.342051 11.3344,-2.982335 5.1978,-1.640284 10.3506,-2.993722 11.4506,-3.00764 1.1,-0.01392 4.925,-0.927863 8.5,-2.03099 3.575,-1.103127 8.1008,-2.219082 10.0572,-2.479899 1.9565,-0.260817 6.1718,-1.373748 9.3674,-2.473179 3.1955,-1.099432 6.1593,-1.783096 6.5862,-1.519253 0.427,0.263843 2.6369,-0.17678 4.9111,-0.979161 2.2742,-0.802382 5.8096,-1.678996 7.8565,-1.948032 2.0469,-0.269036 5.2966,-0.969321 7.2216,-1.55619 1.925,-0.586868 5.2522,-1.295617 7.3937,-1.574996 2.1416,-0.27938 4.1996,-0.696963 4.5734,-0.927964 0.8611,-0.532241 14.4289,-3.472286 18.9216,-4.100189 1.8638,-0.260487 3.7733,-0.711247 4.2432,-1.001688 0.4699,-0.290442 2.6801,-0.748127 4.9114,-1.017077 2.2313,-0.26895 5.175,-0.914089 6.5415,-1.433641 1.3665,-0.519552 2.8065,-0.86412 3.1999,-0.765705 0.3934,0.09842 2.213,-0.17528 4.0436,-0.608212 1.8305,-0.432932 4.3055,-0.9339 5.5,-1.113264 1.1944,-0.179363 4.8717,-0.850757 8.1717,-1.491987 12.8717,-2.501125 16.0896,-3.098655 18.5,-3.4353 1.375,-0.192034 6.775,-1.106231 12,-2.031549 11.3387,-2.008017 13.5642,-2.389593 17.5,-3.000432 1.65,-0.256082 10.425,-1.627127 19.5,-3.046765 9.075,-1.419639 18.075,-2.764383 20,-2.988321 1.925,-0.223939 5.1875,-0.649952 7.25,-0.946696 2.0625,-0.296744 5.4375,-0.782326 7.5,-1.07907 2.0625,-0.296744 5.4375,-0.746744 7.5,-1 2.0625,-0.253256 5.4375,-0.667674 7.5,-0.92093 2.0625,-0.253256 5.55,-0.695726 7.75,-0.983266 2.2,-0.287541 6.025,-0.762862 8.5,-1.056269 2.475,-0.293407 6.3,-0.773575 8.5,-1.067039 3.9648,-0.528876 9.8238,-1.116377 18.5,-1.855067 5.1871,-0.441628 15.4213,-1.434322 22.1192,-2.14552 5.7323,-0.608669 15.4814,-1.398118 23.3808,-1.893305 10.0452,-0.629697 24.6375,-1.578356 31.5,-2.047838 40.5141,-2.771683 113.6055,-3.223741 159.5,-0.986482 25.7311,1.254334 38.7231,2.090011 46.3552,2.981668 2.9453,0.344106 8.1203,0.817013 11.5,1.050906 6.2951,0.435657 10.0172,0.807458 19.6448,1.962308 3.025,0.362855 7.525,0.854429 10,1.092387 7.5384,0.724779 11.2578,1.146733 17,1.928619 3.025,0.411896 6.85,0.914951 8.5,1.1179 1.65,0.20295 4.575,0.593999 6.5,0.868999 1.925,0.275 5.075,0.698515 7,0.941145 1.925,0.24263 4.625,0.662253 6,0.932497 3.3064,0.649837 9.561,1.619853 14.4445,2.240183 2.1695,0.275578 4.2258,0.674852 4.5695,0.887276 0.3437,0.212424 2.8436,0.684777 5.5555,1.049672 2.7118,0.364896 5.8305,0.879442 6.9305,1.143436 1.1,0.263994 3.35,0.625431 5,0.803193 1.65,0.177762 3.225,0.430414 3.5,0.561447 0.275,0.131034 0.95,0.306897 1.5,0.390806 1.2685,0.19353 7.2316,1.383182 10.5,2.094792 5.5466,1.207626 6.6005,1.435746 9,1.948017 6.0153,1.284232 7.11,1.527504 9,2 4.9022,1.225557 11.9142,2.608734 13.5,2.663003 0.55,0.01882 1.7255,0.422509 2.6123,0.897082 0.8867,0.474574 3.1367,1.124922 5,1.445219 1.8632,0.320297 4.9627,0.998971 6.8877,1.508165 1.925,0.509193 4.4,1.096865 5.5,1.305937 1.1,0.209071 2.675,0.667498 3.5,1.018724 0.825,0.351227 2.4,0.76935 3.5,0.929162 1.1,0.159813 2.4534,0.574196 3.0076,0.920853 0.5542,0.346657 2.8042,0.988339 5,1.42596 4.8852,0.973611 4.6607,0.914461 6.4924,1.710624 0.825,0.358598 2.4,0.814628 3.5,1.013401 1.1,0.198774 2.675,0.648774 3.5,1 0.825,0.351227 2.4,0.801227 3.5,1 1.1,0.198774 2.675,0.61909 3.5,0.934037 1.8739,0.715368 12.2353,4.087169 13.25,4.311798 0.4125,0.09132 0.975,0.222285 1.25,0.291035 0.275,0.06875 0.8375,0.194967 1.25,0.280483 0.4125,0.08552 2.325,0.813561 4.25,1.617877 1.925,0.804316 3.5,1.377714 3.5,1.274218 0,-0.103497 1.35,0.338142 3,0.981419 1.65,0.643277 3.675,1.315481 4.5,1.493787 0.825,0.178307 1.6125,0.414874 1.75,0.525705 0.1375,0.110831 0.6625,0.257761 1.1667,0.326511 0.5041,0.06875 1.2541,0.4625 1.6666,0.875 0.4125,0.4125 1.3207,0.75 2.0183,0.75 0.6975,0 2.535,0.524793 4.0833,1.166206 1.5483,0.641413 3.0401,1.24162 3.3151,1.333794 0.275,0.09217 1.7668,0.692381 3.3151,1.333794 1.5483,0.641413 3.3858,1.166206 4.0833,1.166206 0.6976,0 1.6058,0.3375 2.0183,0.75 0.4125,0.4125 1.1625,0.80625 1.6666,0.875 0.5042,0.06875 1.1417,0.2375 1.4167,0.375 0.275,0.1375 0.8375,0.325232 1.25,0.417182 0.4125,0.09195 2.9447,1.160701 5.6271,2.375 2.6824,1.2143 5.276,2.207818 5.7636,2.207818 0.4875,0 1.6678,0.44981 2.6229,0.99957 2.1775,1.25351 6.5261,2.80327 7.3814,2.63063 0.3548,-0.0716 1.6395,0.7698 2.855,1.8698 1.2155,1.1 2.2752,1.85587 2.355,1.6797 0.08,-0.17616 1.495,0.23613 3.145,0.91621 1.65,0.68007 3.225,1.29686 3.5,1.37063 0.275,0.0738 2.75,1.21383 5.5,2.53346 2.75,1.31963 5.225,2.42917 5.5,2.46565 0.5012,0.0665 18.8534,9.3644 28.806,14.5942 2.9182,1.53347 5.9557,3.32744 6.75,3.98659 0.7942,0.65915 1.444,0.8486 1.444,0.42102 0,-0.42759 0.7875,-0.087 1.75,0.75696 1.8164,1.5926 7.0062,4.4203 8.75,4.76747 0.55,0.1095 1.225,0.50402 1.5,0.8767 0.5696,0.77198 6.2409,4.54148 7,4.65266 0.651,0.0953 9.1438,5.48084 15.5,9.82895 2.75,1.88119 5.3692,3.35948 5.8203,3.28507 0.4512,-0.0744 1.2611,0.65223 1.7997,1.61473 0.5387,0.9625 1.4034,1.75 1.9216,1.75 1.1225,0 23.9696,16.64132 25.5686,18.62366 0.6107,0.75699 1.3982,1.37634 1.75,1.37634 0.3519,0 1.467,0.7875 2.4781,1.75 1.0111,0.9625 4.4717,4 7.6903,6.75 12.783,10.92195 32.7787,30.45785 40.8127,39.87432 2.2873,2.68087 4.8683,5.60587 5.7357,6.5 0.8673,0.89412 2.8923,3.41674 4.5,5.60582 4.0607,5.52922 5.6483,7.53003 7.673,9.67014 0.9625,1.01735 1.75,2.21487 1.75,2.66116 0,0.44629 0.7951,1.68379 1.767,2.75 0.9718,1.06621 3.5331,4.63856 5.6917,7.93856 2.1587,3.3 4.2885,6.15 4.7331,6.33333 0.4445,0.18334 0.8082,0.7371 0.8082,1.23059 0,0.49348 1.575,3.35937 3.5,6.36863 1.925,3.00926 3.5,5.90549 3.5,6.43608 0,0.53059 0.3375,1.1147 0.75,1.29804 1.8862,0.83833 17.2505,32.23498 18.6364,38.08333 0.3584,1.5125 1.0931,2.75 1.6327,2.75 0.5395,0 0.9809,0.57498 0.9809,1.27774 0,1.39804 4.3122,14.94813 6.1815,19.42403 0.6427,1.53903 1.288,3.81148 1.4338,5.0499 0.1458,1.23842 1.4874,6.17354 2.9813,10.96694 1.494,4.7934 2.8746,10.07482 3.068,11.73649 0.1935,1.66166 0.6434,3.92654 0.9998,5.03305 0.3564,1.10652 0.7566,2.91185 0.8893,4.01185 0.1326,1.1 0.7282,4.7 1.3233,8 2.8867,16.00568 5.3264,53.5 3.4812,53.5 -0.4746,0 -5.3618,-1.11742 -10.8605,-2.48315 -24.3213,-6.04072 -55.081,-8.66401 -86.2423,-7.355 -64.931,2.7276 -123.698,29.28373 -172.2539,77.83964 -48.2972,48.29719 -74.9506,107.00585 -77.8595,171.49851 l -0.6766,15 -0.643,-17.63199 -0.6431,-17.63199 -9.3396,-12.07571 -9.3397,-12.07571 -189.75,-0.0423 C 1625.3875,641.019 1540,640.76501 1540,640.4778 c 0,-1.65067 8.7023,-17.38996 13.8398,-25.03109 20.8106,-30.95236 47.1999,-49.09351 83.6602,-57.51167 13.0123,-3.00435 42.491,-3.81407 55.8644,-1.53448 35.4738,6.04673 68.695,26.88268 97.3897,61.08179 l 4.1805,4.98235 15.3466,-15.98235 C 1839.5479,576.00331 1854.42,558.99688 1868.4198,540 l 7.738,-10.5 -10.9778,-10.664 c -40.5927,-39.43215 -89.7658,-66.79328 -139.776,-77.77476 -31.5685,-6.93198 -76.9843,-6.91725 -110.6838,0.0359 -58.8091,12.13396 -109.9923,44.58715 -151.2452,95.8984 -23.8108,29.61632 -42.834,68.97638 -50.9546,105.42763 -1.4609,6.55775 -3.1576,15.67025 -3.7703,20.25 -0.6128,4.57975 -1.4201,8.32682 -1.794,8.32682 -0.374,0 -0.9845,-3.0375 -1.3568,-6.75 -1.8402,-18.35075 -9.5168,-46.5574 -18.2796,-67.16573 -17.712,-41.65508 -51.3491,-82.80808 -91.8197,-112.33599 -36.493,-26.62574 -78.9007,-42.69426 -126,-47.74214 -14.9945,-1.60704 -48.9208,-1.33708 -63,0.5013 -36.6969,4.79167 -70.4727,16.71513 -103,36.36088 l -10,6.03976 -0.26877,-22.45404 L 992.96245,435 933.98123,435 875,435 l 0,439.9919 0,439.9919 16.75,-0.5345 c 22.06588,-0.704 37.92845,-1.3328 47.75,-1.8926 15.4513,-0.8806 25.95098,-1.5763 30.95154,-2.0506 2.77665,-0.2634 8.19846,-0.7209 12.04846,-1.0167 3.85,-0.2958 7.7875,-0.7823 8.75,-1.081 1.6587,-0.5148 1.75,-10.5538 1.75,-192.4205 l 0,-191.87742 10.25,6.11179 c 29.5411,17.61456 64.3027,30.00802 99.25,35.38538 16.5695,2.54955 57.6549,2.57433 75,0.0452 60.7697,-8.86088 109.3145,-33.32537 153.0142,-77.11261 40.7123,-40.7938 64.9061,-86.86652 73.6736,-140.29789 1.5492,-9.44138 2.4244,-12.785 2.8903,-11.0428 0.3675,1.37436 4.5477,7.74168 9.2891,14.14962 L 1424.988,763 l 190.006,0 c 104.5033,0 190.006,0.23623 190.006,0.52496 0,1.70606 -7.9306,15.7627 -14.1525,25.08465 -8.5476,12.80651 -23.5769,28.30696 -35.1047,36.20525 -15.3635,10.52621 -34.5235,18.12651 -55.2428,21.91342 -13.0748,2.3897 -41.2368,2.36353 -52.5,-0.0488 -32.365,-6.93183 -60.2485,-23.72859 -89.7977,-54.09329 C 1551.4658,785.66379 1545.8,780 1545.6117,780 c -0.578,0 -38.7956,40.85231 -48.6463,52 -10.1439,11.47941 -28.2834,33.85714 -29.9128,36.90169 -0.8869,1.65722 0.73,3.60268 12.0927,14.54952 49.9521,48.1241 100.7694,74.25438 160.8547,82.71163 14.1237,1.98796 55.2614,1.68293 70.5,-0.52276 42.1439,-6.10006 77.1944,-19.38574 110,-41.69486 27.7822,-18.89298 57.1758,-49.07702 76.2318,-78.28175 26.0148,-39.86954 41.0033,-88.8607 42.4233,-138.66347 0.086,-3.025 0.5002,1.7 0.9198,10.5 2.6313,55.18298 20.2119,102.90697 53.9679,146.5 7.9221,10.23076 28.5832,32 30.371,32 0.5998,0 3.1677,-1.9125 5.7066,-4.25 2.5389,-2.3375 6.8129,-6.12445 9.4979,-8.41544 5.1119,-4.36187 6.7719,-5.88413 25.2796,-23.18183 16.1292,-15.07481 43.75,-42.96073 48.9526,-49.42252 1.5125,-1.87847 2.3068,-0.80657 -14.6744,-19.80095 C 2090.2822,780.98099 2075,761.79391 2075,760.57574 2075,760.25908 2093.4875,760 2116.0833,760 c 25.4544,0 40.9566,0.36064 40.75,0.948 -0.1833,0.5214 -2.1333,3.07677 -4.3333,5.67859 -7.2804,8.61019 -10.9602,13.00839 -14.5,17.33084 -1.925,2.35065 -5.075,5.97129 -7,8.04589 -1.925,2.0746 -4.4119,4.83505 -5.5264,6.13434 -1.1145,1.29929 -3.7793,4.30245 -5.9218,6.67369 l -3.8954,4.31135 10.9218,11.04137 c 11.9206,12.05109 14.8287,13.81282 33.5781,20.34111 17.6887,6.15901 28.3685,7.99485 46.3437,7.96639 23.3706,-0.037 39.4173,-3.8868 60.5,-14.51465 20.8367,-10.50385 43.1225,-29.27143 59.0161,-49.69936 l 2.5162,-3.23398 42.8215,42.8302 42.8215,42.83021 -13.3376,12.57215 c -53.3949,50.33024 -102.9045,76.84637 -161.3377,86.40847 -15.2329,2.49273 -54.8238,2.4844 -72,-0.0152 -52.2552,-7.6044 -97.3406,-28.16349 -135.6534,-61.85842 l -7.6533,-6.7309 -2.8467,2.19615 c -1.5656,1.20789 -4.0156,3.33186 -5.4443,4.71994 -2.7709,2.69199 -7.2598,6.48493 -12.8315,10.84211 -1.886,1.47492 -4.2485,3.46917 -5.25,4.43167 -1.0014,0.9625 -2.2333,1.75 -2.7375,1.75 -0.5041,0 -1.0666,0.34085 -1.25,0.75744 -0.1833,0.41659 -2.3583,2.31746 -4.8333,4.22416 -2.475,1.9067 -4.725,3.70591 -5,3.99825 -0.275,0.29234 -2.3,1.85518 -4.5,3.47298 -2.2,1.61779 -4.225,3.21402 -4.5,3.54717 -0.275,0.33315 -2.3,1.92938 -4.5,3.54717 -2.2,1.6178 -4.225,3.17157 -4.5,3.45283 -0.275,0.28126 -2.3,1.83503 -4.5,3.45283 -2.2,1.61779 -4.225,3.20508 -4.5,3.5273 -0.275,0.32223 -2.975,2.3633 -6,4.53572 -3.025,2.17242 -5.65,4.29507 -5.8333,4.717 -0.1834,0.42193 -0.9709,0.76715 -1.75,0.76715 -0.7792,0 -1.4167,0.41968 -1.4167,0.93261 0,0.51294 -0.8207,1.19309 -1.8237,1.51144 -1.0031,0.31835 -2.6906,1.37363 -3.75,2.34506 -1.0595,0.97143 -5.7513,4.4372 -10.4263,7.70172 -4.675,3.26451 -8.65,6.28956 -8.8333,6.72233 -0.1834,0.43276 -0.9334,0.78684 -1.6667,0.78684 -0.7333,0 -1.4833,0.39421 -1.6667,0.87603 -0.1833,0.48182 -3.7083,3.03965 -7.8333,5.68407 -4.125,2.64441 -7.65,5.1752 -7.8333,5.62396 -0.1834,0.44877 -0.9709,0.81594 -1.75,0.81594 -0.7792,0 -1.4167,0.45 -1.4167,1 0,0.55 -0.675,1 -1.5,1 -0.825,0 -1.5,0.45 -1.5,1 0,0.55 -0.675,1 -1.5,1 -0.825,0 -1.5,0.45 -1.5,1 0,0.55 -0.675,1 -1.5,1 -0.825,0 -1.5,0.45004 -1.5,1.00004 0,0.55 -0.675,1 -1.5,1 -0.825,0 -1.5,0.45 -1.5,1 0,0.55 -0.675,1 -1.5,1 -0.825,0 -1.5,0.45 -1.5,1 0,0.55 -0.675,1 -1.5,1 -0.825,0 -1.5,0.45 -1.5,1 0,0.55 -0.675,1 -1.5,1 -0.825,0 -1.5,0.45 -1.5,1 0,0.55 -0.4673,1 -1.0384,1 -0.5711,0 -5.0538,2.7 -9.9616,6 -4.9078,3.3 -9.3905,6 -9.9616,6 -0.5711,0 -1.0384,0.45 -1.0384,1 0,0.55 -0.675,1 -1.5,1 -0.825,0 -1.5,0.45 -1.5,1 0,0.55 -0.675,1 -1.5,1 -0.825,0 -1.5,0.366 -1.5,0.8134 0,0.4473 -1.575,1.4313 -3.5,2.1866 -1.925,0.7553 -3.5,1.7393 -3.5,2.1866 0,0.4474 -0.675,0.8134 -1.5,0.8134 -0.825,0 -1.5,0.45 -1.5,1 0,0.55 -0.4413,1 -0.9806,1 -0.5393,0 -3.3856,1.5385 -6.3251,3.4189 -2.9395,1.8803 -6.9366,4.313 -8.8824,5.4059 -1.9458,1.0929 -4.612,2.5919 -5.9249,3.3312 -1.3128,0.7392 -2.612,1.569 -2.887,1.844 -0.4495,0.4495 -3.8934,2.4166 -9.5,5.4264 -1.1,0.5905 -2.225,1.2986 -2.5,1.5736 -0.275,0.275 -2.4607,1.5155 -4.857,2.7567 -6.1041,3.1615 -10.5551,5.6554 -11.143,6.2433 -0.6086,0.6086 -2.6195,1.7347 -12.5,7 -9.8805,5.2653 -11.8914,6.3914 -12.5,7 -0.5025,0.5025 -6.1503,3.4588 -26.5,13.8715 -6.05,3.0957 -11.225,5.8535 -11.5,6.1285 -0.275,0.275 -2.075,1.2269 -4,2.1154 -8.2815,3.8221 -11.5311,5.4157 -12,5.8846 -0.275,0.275 -2.075,1.2341 -4,2.1313 -11.2644,5.2501 -17.5402,8.4591 -17.8333,9.1187 -0.1834,0.4125 -0.8111,0.75 -1.3951,0.75 -0.584,0 -4.3363,1.575 -8.3385,3.5 -4.0023,1.925 -7.762,3.5 -8.355,3.5 -0.5929,0 -1.0781,0.45 -1.0781,1 0,0.55 -0.6766,1 -1.5036,1 -0.827,0 -3.1829,0.9 -5.2352,2 -2.0524,1.1 -4.3007,2 -4.9964,2 -0.6956,0 -1.2648,0.45 -1.2648,1 0,0.55 -0.4747,1 -1.0549,1 -1.149,0 -7.0576,2.5246 -16.4451,7.0267 -3.3,1.5826 -7.2375,3.1728 -8.75,3.5338 -1.5125,0.361 -2.75,1.0575 -2.75,1.5479 0,0.4904 -0.5799,0.8916 -1.2886,0.8916 -0.7087,0 -3.0026,0.8739 -5.0976,1.942 -2.095,1.0681 -5.1152,2.2289 -6.7115,2.5795 -1.5963,0.3506 -2.9023,0.9932 -2.9023,1.428 0,0.4348 -2.025,1.3575 -4.5,2.0505 -2.475,0.693 -4.5,1.6514 -4.5,2.13 0,0.4785 -0.7441,0.87 -1.6535,0.87 -0.9094,0 -3.9469,1.0666 -6.75,2.3701 -6.9528,3.2334 -18.1989,7.6299 -19.5171,7.6299 -0.5936,0 -1.0794,0.3966 -1.0794,0.8813 0,0.4847 -1.9125,1.3688 -4.25,1.9647 -2.3375,0.5958 -6.0326,1.9992 -8.2114,3.1187 -2.1788,1.1194 -4.6662,2.0353 -5.5275,2.0353 -0.8614,0 -2.4598,0.626 -3.552,1.391 -1.0923,0.7651 -4.4003,2.108 -7.3511,2.9843 -2.9509,0.8763 -5.8698,1.9908 -6.4866,2.4767 -0.6168,0.4858 -3.5964,1.6444 -6.6214,2.5746 -3.025,0.9302 -6.625,2.2964 -8,3.036 -1.375,0.7395 -5.2,2.1271 -8.5,3.0834 -3.3,0.9563 -6.9,2.3104 -8,3.009 -1.1,0.6986 -5.375,2.2569 -9.5,3.4629 -4.125,1.206 -8.625,2.8076 -10,3.559 -1.375,0.7514 -7.225,2.786 -13,4.5212 -5.775,1.7352 -11.625,3.7674 -13,4.5159 -2.9291,1.5945 -115.0766,35.9705 -119.5,36.6297 -1.65,0.2459 -8.175,1.9078 -14.5,3.693 -21.5127,6.0719 -29.4963,8.1892 -32,8.4866 -1.375,0.1633 -4.975,1.0574 -8,1.9868 -3.025,0.9295 -7.075,1.8991 -9,2.1547 -1.925,0.2556 -5.6704,1.1802 -8.3232,2.0547 -2.6528,0.8744 -6.0278,1.7053 -7.5,1.8463 -1.4722,0.1411 -4.9268,0.8128 -7.6768,1.4928 -15.3584,3.7977 -25.6952,6.1263 -28.7203,6.47 -1.2538,0.1424 -3.1797,0.5456 -4.2797,0.896 -1.1,0.3503 -3.575,0.8522 -5.5,1.1152 -1.925,0.263 -4.9286,0.9055 -6.6747,1.4278 -1.7461,0.5223 -3.3634,0.7609 -3.594,0.5303 -0.2306,-0.2306 -2.3374,0.2575 -4.6818,1.0846 -2.3443,0.8272 -4.6166,1.285 -5.0495,1.0175 -0.4329,-0.2675 -2.6829,0.1825 -5,1 -2.3171,0.8175 -4.5773,1.2613 -5.0226,0.9861 -0.4452,-0.2752 -2.0428,-0.032 -3.5501,0.5415 -1.5073,0.5731 -4.3575,1.2381 -6.3339,1.4778 -4.724,0.573 -7.2892,0.9927 -15.0934,2.4696 -7.5014,1.4196 -8.9463,1.6636 -14.8001,2.4989 -2.365,0.3376 -5.3563,1.0153 -6.6472,1.5061 -1.2909,0.4908 -2.5244,0.715 -2.7412,0.4982 -0.2167,-0.2167 -4.4255,0.2826 -9.3528,1.1097 -4.9273,0.827 -10.3087,1.6896 -11.9587,1.9168 -1.65,0.2272 -4.35,0.633 -6,0.9017 -3.5048,0.5708 -9.7373,1.5035 -14,2.0951 -1.65,0.229 -4.575,0.6429 -6.5,0.9198 -1.925,0.2769 -5.525,0.7623 -8,1.0787 -2.475,0.3164 -6.075,0.7832 -8,1.0373 -1.925,0.2541 -5.75,0.6987 -8.5,0.9879 -2.75,0.2892 -5.675,0.713 -6.5,0.9417 -0.825,0.2287 -4.6083,0.6969 -8.4074,1.0404 -3.799,0.3435 -8.524,0.8496 -10.5,1.1247 -3.578,0.4981 -7.6337,0.8989 -18.0926,1.7879 -14.3987,1.2239 -18.63295,1.679 -20.25,2.1765 -1.62479,0.4999 -1.75,3.145 -1.75,36.971 l 0,36.4326 -59,0 -59,0 0,-33.419 z M 863,701.5 863,435 l -86.5,0 -86.5,0 0,61.5 0,61.5 27,0 27,0 0,205 0,205 59.5,0 59.5,0 0,-266.5 z m 259,146.48224 c -31.9478,-4.44545 -58.4566,-17.29142 -82.1273,-39.79835 -22.4918,-21.386 -37.1183,-47.05487 -43.54276,-76.41571 -2.6,-11.88243 -2.60558,-46.64669 -0.009,-58.76818 6.21596,-29.02291 18.57726,-51.02027 41.61826,-74.06121 23.0409,-23.04095 45.0383,-35.40224 74.0612,-41.61828 12.1215,-2.59615 46.8857,-2.59057 58.7682,0.009 29.3608,6.42446 55.0297,21.05095 76.4157,43.54277 19.9748,21.00771 32.0439,43.70526 37.9864,71.43888 2.988,13.94494 3.211,41.48743 0.4549,56.18841 -5.5547,29.62909 -19.0125,54.77267 -41.1825,76.9427 -21.5899,21.58994 -45.9726,34.92142 -74.4072,40.68287 -11.0045,2.22975 -37.887,3.26881 -48.0355,1.85667 z m 1036.75,-88.64452 c 0.6875,-0.27741 1.25,-1.11953 1.25,-1.87136 0,-0.75184 0.5807,-1.72684 1.2904,-2.16667 0.7097,-0.43983 7.895,-9.79969 15.9673,-20.79969 8.0724,-11 15.1417,-20.54351 15.7097,-21.20779 0.5679,-0.66429 1.0326,-1.40411 1.0326,-1.64405 0,-0.23995 2.3839,-3.97144 5.2975,-8.29221 10.1849,-15.10386 24.2957,-38.67763 34.0329,-56.85595 l 2.6782,-5 -80.5043,-0.25591 c -44.2774,-0.14076 -80.504,-0.59076 -80.5036,-1 0,-1.22541 9.4299,-16.69119 14.6097,-23.96409 12.1044,-16.99579 33.6323,-35.43582 53.2302,-45.59518 21.6855,-11.24151 34.5957,-14.65568 58.2564,-15.4062 22.6409,-0.71817 39.6607,2.33249 57.8214,10.36401 7.1005,3.14015 8.2148,4.11202 7.1004,6.19265 -0.4904,0.9156 -2.0985,5.03972 -3.5736,9.16472 -2.8162,7.87563 -3.3765,9.32224 -5.81,15 -0.8251,1.925 -3.384,8 -5.6865,13.5 -2.3025,5.5 -5.5236,12.7 -7.158,16 -1.6344,3.3 -3.8309,7.73003 -4.8812,9.8445 -1.0502,2.11448 -1.9095,4.25198 -1.9095,4.75 0,0.52872 21.0203,0.9055 50.5168,0.9055 l 50.5169,0 -2.4152,-4.75 c -12.4746,-24.53383 -36.5561,-49.15455 -61.6185,-62.99836 -3.575,-1.97473 -6.6151,-3.66683 -6.7558,-3.76021 -0.1408,-0.0934 2.1835,-8.68153 5.165,-19.08476 2.9815,-10.40324 5.7127,-20.87147 6.0693,-23.26274 0.3567,-2.39126 1.0825,-5.48931 1.613,-6.88453 0.5304,-1.39523 0.768,-2.73324 0.5279,-2.97336 -0.2401,-0.24012 -5e-4,-1.86521 0.5326,-3.61131 1.2095,-3.96197 1.5757,-5.88971 2.3127,-12.17473 0.3224,-2.75 0.8375,-6.125 1.1446,-7.5 0.3071,-1.375 0.7307,-4.075 0.9413,-6 0.2106,-1.925 0.6187,-5.525 0.9069,-8 0.2882,-2.475 0.7992,-10.8 1.1355,-18.5 0.3363,-7.7 0.7619,-14.15896 0.9458,-14.35324 0.1839,-0.19429 4.0754,0.8879 8.6478,2.40486 52.0487,17.26799 95.8729,51.89596 129.4104,102.25436 21.2722,31.94148 36.0921,64.47297 43.1382,94.69402 2.5399,10.89364 2.5688,11.49555 2.987,62.25 l 0.4222,51.25 -157.8222,-0.0789 C 2228.52,759.8777 2158.0625,759.61518 2158.75,759.33777 z M 789.5,180.35236 C 758.89391,175.4371 732.52534,151.81366 724.3669,122 c -1.30326,-4.76253 -1.78483,-10.24225 -1.80159,-20.5 -0.0215,-13.134674 0.16813,-14.537362 3.06744,-22.693913 9.32574,-26.235811 34.18351,-49.87639 59.17239,-56.27495 8.30337,-2.12613 25.08635,-2.12613 33.38972,0 24.98281,6.397005 49.81155,30.005418 59.18382,56.27495 2.96655,8.314937 3.09814,9.347778 3.01887,23.693913 -0.0977,17.68583 -1.89263,25.82259 -8.55604,38.78672 -3.25096,6.32495 -6.30453,10.29628 -13.28152,17.27327 -15.21113,15.21113 -30.06285,21.2931 -53.55999,21.93349 -6.875,0.18737 -13.85,0.12387 -15.5,-0.14112 z" id="path3008" style="fill:#fe9833"/>
  </g>
</svg>