<svg xmlns="http://www.w3.org/2000/svg" viewBox="0 0 548.91 98.02"><defs><style>.cls-1{fill:#e9963b;}.cls-2{fill:#989194;}.cls-3{fill:#fff;}.cls-4{fill:#fefefe;}</style></defs><title>neOCampus_blanc</title><g id="Calque_2" data-name="Calque 2"><g id="Calque_1-2" data-name="Calque 1"><path class="cls-1" d="M155.55,0a48.93,48.93,0,0,1,8.29,1.68A27.85,27.85,0,0,1,169.1,4c0,.44-.4.49-.65.65a33.41,33.41,0,0,0-8.59,8.09,1.43,1.43,0,0,1-1.85.64c-7.44-1.88-14.11-.64-19.5,5.21a24.1,24.1,0,0,0-5.59,10.86,48.31,48.31,0,0,0,.33,25.34c1.59,5.47,4.31,10.33,9.25,13.58a18.24,18.24,0,0,0,24.12-4,31.44,31.44,0,0,0,6.17-15.62,49.32,49.32,0,0,0-1.34-20.4,1.63,1.63,0,0,1,.05-1.17,21.3,21.3,0,0,1,9.22-10.68c.83-.47,1.21-.31,1.65.49a45.5,45.5,0,0,1,5.41,17.86A60.27,60.27,0,0,1,186.23,57c-2.67,9.71-8,17.39-16.88,22.62a32.11,32.11,0,0,1-14.51,4.23,34.41,34.41,0,0,1-19.94-4.3c-7.23-4.15-11.85-10.44-14.84-18.07a51.19,51.19,0,0,1-3.26-16,57.32,57.32,0,0,1,2.27-20.72c3.6-11.26,10.54-19.38,22.05-23.13A51.12,51.12,0,0,1,149.07,0Z"/><path class="cls-1" d="M196.35,0a68.64,68.64,0,0,1,7.5,1.38,33.28,33.28,0,0,1,13.67,8.35c.4.38.44.64,0,1.07-2.41,2.62-4.8,5.25-7.16,7.92-.49.56-.71.28-1.1-.07-2.71-2.47-5.6-4.63-9.3-5.42a38.56,38.56,0,0,0-13.34-.18c-10.42,1.39-15.51,8.35-18.08,17.6a44.45,44.45,0,0,0,.42,24.6,1.72,1.72,0,0,1,.13,1.16c-1.76,4.59-4.34,8.52-8.7,11.08-.91.54-1.38.51-2-.48a45.16,45.16,0,0,1-5.85-19.19,55.55,55.55,0,0,1,1.51-19.73c3.06-10.93,9.1-19.55,19.56-24.62,3.72-1.81,7.74-2.47,11.78-3,1.38-.18,2.76-.32,4.15-.48Z"/><path class="cls-2" d="M548.71,54.2a.14.14,0,0,1,.2,0V58.8l-.1,0h-.11A5.61,5.61,0,0,1,548.71,54.2Z"/><path class="cls-3" d="M296.73,21.57c1.43-1.32,2.58-2.47,3.82-3.52,3.35-2.84,6.84-5.45,11.33-6.14,5.54-.85,10.86-.46,15.47,3.19a17.62,17.62,0,0,1,5.19,7.24c1.63-1.6,3.16-3.21,4.88-4.62,2.95-2.42,6-4.76,9.8-5.57,6-1.25,11.72-.87,16.71,3.11,3.33,2.65,4.91,6.41,5.93,10.43a40.46,40.46,0,0,1,1.07,9.74c0,12.36,0,24.72,0,37.08,0,1.07-.23,1.42-1.37,1.4-3.79-.08-7.6,0-11.39,0-1.81,0-1.63.24-1.63-1.57,0-11.16,0-22.32,0-33.48A38.31,38.31,0,0,0,356,31.2c-1.22-5.92-6-8.73-11.78-6.8-3.79,1.28-6.63,3.92-9.36,6.71-.43.44-.27,1-.27,1.47q0,19.92,0,39.84c0,1.23-.32,1.52-1.52,1.49-3.67-.08-7.35,0-11,0-1.81,0-1.81,0-1.81-1.74q0-17.7,0-35.4a24.2,24.2,0,0,0-.7-6.17c-1.36-5.3-5.68-7.81-11-6.39-3.15.84-5.56,2.85-8,4.84a6.32,6.32,0,0,0-2.43,5.55c.13,12.68.05,25.36.09,38,0,1.08-.29,1.31-1.33,1.3-4-.07-7.92,0-11.88,0-.83,0-1.07-.22-1.07-1.06q0-29.4,0-58.8c0-.84.24-1.07,1.07-1.06,3.24,0,6.48,0,9.72,0,.72,0,1,.14,1.12.94C296.05,16.38,296.39,18.82,296.73,21.57Z"/><path class="cls-3" d="M0,43.35c0-9.68,0-19.36,0-29,0-1,.16-1.38,1.28-1.34,3.16.09,6.32.06,9.48,0,.82,0,1.11.25,1.2,1,.21,2.07.48,4.13.75,6.19,0,.31-.17.79.31.91s.62-.31.87-.55A43.57,43.57,0,0,1,22,14.45,22,22,0,0,1,41.19,13c5.54,2,8,6.67,9.48,12A40.05,40.05,0,0,1,51.9,35.64c0,12.32,0,24.64,0,37,0,1.07-.27,1.33-1.32,1.31-3.92-.07-7.84-.06-11.76,0-1,0-1.28-.24-1.27-1.25q0-18,0-36a25.28,25.28,0,0,0-.52-5.35c-1.17-5.58-4.49-7.95-10.17-7.39a13.31,13.31,0,0,0-6.55,2.4,57.71,57.71,0,0,0-5.29,4.33,2.25,2.25,0,0,0-.78,1.88c0,13.32,0,26.64,0,39.95,0,1.18-.32,1.46-1.46,1.44-3.8-.08-7.6-.1-11.4,0C.17,74,0,73.53,0,72.39,0,62.71,0,53,0,43.35Z"/><path class="cls-3" d="M483.56,64.68c-1.53,1.67-2.86,3.1-4.29,4.42C473.14,74.73,466,76.51,458,74.67c-6.41-1.48-9.73-6-11.51-11.94A37.84,37.84,0,0,1,445,51.84c0-12.52,0-25,0-37.55,0-1,.23-1.34,1.3-1.32,3.92.07,7.84.06,11.76,0,1,0,1.26.29,1.25,1.28q0,17.38,0,34.79a28.24,28.24,0,0,0,.8,7.6c1.17,4.26,3.72,6.25,8.12,6.38a13.24,13.24,0,0,0,9.95-4l.17-.17c3.84-3.77,3.84-3.77,3.84-9.1,0-11.8,0-23.6,0-35.4,0-1.19.34-1.43,1.46-1.41,3.92.07,7.84,0,11.76,0,.84,0,1.06.24,1.06,1.07q0,29.4,0,58.79c0,.84-.24,1.07-1.07,1.06-3.2-.05-6.4,0-9.6,0-.82,0-1.08-.24-1.17-1.06C484.3,70.22,483.93,67.62,483.56,64.68Z"/><path class="cls-3" d="M548.71,54.2c0,1.54,0,3.09,0,4.64a16.66,16.66,0,0,1-10,13.63c-8.41,4-17,3.72-25.62.55A40.82,40.82,0,0,1,503,67.57c-.75-.54-.73-.86-.2-1.56q2.82-3.72,5.51-7.55c.46-.66.75-.68,1.38-.2a29.66,29.66,0,0,0,11,5.67,19.48,19.48,0,0,0,9.14.12,6.8,6.8,0,0,0,5.48-7.58,6,6,0,0,0-2.49-3.94,20.3,20.3,0,0,0-5.1-2.86c-4.15-1.74-8.42-3.21-12.42-5.31a22.89,22.89,0,0,1-6.4-5c-5.68-6.23-4.07-16.36.93-21.44,3.71-3.77,8.3-5.52,13.42-6.18,8.75-1.12,16.49,1.38,23.57,6.41.76.54.82.88.23,1.62-1.77,2.21-3.48,4.48-5.14,6.78-.57.8-.92,1-1.82.33-3.26-2.29-6.75-4.12-10.83-4.47a13,13,0,0,0-7,1c-3.53,1.72-5,7.11-1,10a24,24,0,0,0,5.85,3c4.37,1.64,8.85,3,12.91,5.36,4.32,2.5,7.52,5.91,8.56,11C548.62,53.24,548.65,53.72,548.71,54.2Z"/><path class="cls-1" d="M172,79.89a44.15,44.15,0,0,0,4.75-3.67,29,29,0,0,0,4.84-5.6,1.44,1.44,0,0,1,2-.73,31.2,31.2,0,0,0,17.83.36c3.71-1,6.6-3.32,9.21-6,.79-.82,1.18-.74,1.88.07,2.13,2.43,4.33,4.8,6.54,7.16.49.52.5.81,0,1.35a31.42,31.42,0,0,1-20,10.67,58,58,0,0,1-23.22-1.88A16.94,16.94,0,0,1,172,79.89Z"/><path class="cls-4" d="M433.86,24.33c-5.52-11.57-16.79-14.61-26.39-11.86-4.32,1.24-8,3.7-11.53,6.43-1,.8-1.12.76-1.32-.53-.23-1.5-.51-3-.67-4.5-.08-.74-.38-.89-1.06-.89-3.24,0-6.48.06-9.72,0-1,0-1.2.27-1.19,1.2,0,4.68,0,9.36,0,14q0,34.13,0,68.25c0,1.17.31,1.47,1.46,1.44,3.28-.08,6.56,0,9.83,0,1,0,2.29.45,2.86-.22s.19-1.83.18-2.79c-.06-6.79.14-13.59-.16-20.38-.08-1.81,0-3.63,0-5.54.69.53,1.33,1,2,1.52,5.18,3.76,10.83,5.78,17.31,4.51,8-1.55,13.68-6.22,17.56-13.22a37.36,37.36,0,0,0,4.45-16.86C437.73,37.78,437,30.84,433.86,24.33ZM422.56,46.4A23.09,23.09,0,0,1,420,56.16c-2.38,4.25-5.81,7.1-10.89,7.33a16.6,16.6,0,0,1-9.84-2.84c-3-1.89-2.95-1.91-2.95-5.39v-11q0-6.52,0-13.06c0-.47-.11-1,.32-1.34,3.07-2.86,6.34-5.46,10.59-6.21,6-1.05,11.39,1,13.77,7.65C422.75,36.19,422.92,41.27,422.56,46.4Z"/><path class="cls-4" d="M272.77,53.21v-16a40.52,40.52,0,0,0-.83-8.58c-1-4.61-2.78-8.84-6.34-12.09-4-3.63-8.84-4.78-14-5-9.43-.45-17.78,2.77-25.71,7.48-.6.36-.58.65-.27,1.2,1.48,2.65,2.94,5.31,4.35,8,.36.7.64.8,1.31.37a44.74,44.74,0,0,1,6.26-3.25,23.12,23.12,0,0,1,12.24-2.08,10.5,10.5,0,0,1,8.76,11.14c-.07.59-.39.58-.8.63-3.17.36-6.33.82-9.47,1.45C242.6,37.62,237,39.05,232,42c-5.2,3-8.55,7.28-9.12,13.39-.59,6.42.93,12.14,6.25,16.25,5.62,4.34,12,4.61,18.56,2.7,4.32-1.26,8-3.84,11.41-6.65.74-.6,1-.47,1.08.4.22,1.58.54,3.15.74,4.73.11.9.48,1.15,1.38,1.13,3.08-.05,6.16-.06,9.23,0,1,0,1.28-.25,1.27-1.25C272.75,66.17,272.77,59.69,272.77,53.21Zm-14.26-2.34c0,1.91,0,3.83,0,5.75,0,.38.09.79-.27,1.11-2.84,2.6-5.76,5.08-9.62,6a13.39,13.39,0,0,1-5.81.13c-6-1.1-6.82-6.12-5.76-9.93.78-2.77,2.79-4.47,5.23-5.75a41,41,0,0,1,12.65-3.79c1.16-.18,2.68-.93,3.39-.24s.18,2.18.19,3.33S258.51,49.75,258.51,50.87Z"/><path class="cls-4" d="M111.58,32.46c-1-5.28-2.89-10.18-6.74-14-6.47-6.5-14.48-8.05-23.12-6.22-9.27,2-15.65,7.77-19.54,16.33a36.84,36.84,0,0,0-2.34,22.63c2.11,11.1,8.33,19,19.24,22.59s20.87,1.19,30.34-4.62c.65-.4.35-.73.13-1.14l-3.66-6.73c-.78-1.44-.78-1.44-2.24-.61-5.34,3.07-11,4.47-17.13,3.15-7.89-1.71-12.32-8-13.35-16-.13-1,.56-.75,1.06-.76H92.34c6.08,0,12.16,0,18.24,0,.91,0,1.22-.26,1.35-1.17A41.42,41.42,0,0,0,111.58,32.46Zm-12.5,5.6q-12.64,0-25.29,0c-.48,0-.89,0-.77-.69.8-4.63,2.3-8.88,6.21-11.9a13.55,13.55,0,0,1,8.44-2.87c6.35,0,10.43,3.55,11.7,10.11a32.55,32.55,0,0,1,.5,4.52C99.91,37.84,99.73,38.07,99.08,38.06Z"/></g></g></svg>